<?xml version="1.0" encoding="UTF-8"?>
<svg id="Layer_1" data-name="Layer 1" xmlns="http://www.w3.org/2000/svg" viewBox="0 0 1112 290">
  <defs>
    <style>
      .cls-1 {
        fill: #fff;
        stroke-width: 0px;
      }
    </style>
  </defs>
  <path class="cls-1" d="M106.88,209.56c0,2.75-.85,5.23-2.56,7.44-2.46-1.25-4.9-2.52-7.31-3.81-1.25-.67-1.88-1.38-1.88-2.13,0,.08.77-2.52,2.31-7.81,1.12.96,3.19,2.15,6.19,3.56,2.17,1,3.25,1.92,3.25,2.75ZM97.69,186c-4.25,0-7.94-2.25-11.06-6.75-.71-1.17-1.46-2.33-2.25-3.5-.75-1.21-1.58-1.81-2.5-1.81-3.08-.08-7,2.48-11.75,7.69-2.88,3.12-4.17,4.94-3.88,5.44,1.29,2.29,4.21,3.98,8.75,5.06,7.38,1.75,11.62,2.85,12.75,3.31,2.54,1.04,3.81,2.94,3.81,5.69,0-.54-.17,1.15-.5,5.06-.21,2.33-3.02,5.6-8.44,9.81-5.71,4.38-12.17,8.08-19.38,11.12-8.46,3.54-16.12,5.31-23,5.31-6.46,0-11.96-2.75-16.5-8.25-4.29-5.25-6.31-11.04-6.06-17.38.33-8.17,2.12-15.46,5.38-21.87,1.71-3.38,2.9-5.06,3.56-5.06.17.04.25.19.25.44,0,.96-.65,2.77-1.94,5.44-2.96,6.17-4.35,12.23-4.19,18.19.12,4.92,2.23,9.33,6.31,13.25,4.12,3.92,8.62,5.87,13.5,5.87,7.21,0,14.85-1.46,22.94-4.37,6.17-2.21,11.92-5,17.25-8.38,4.62-2.87,6.81-4.62,6.56-5.25-.38-1.04-2.77-1.98-7.19-2.81-5.75-1.04-9.62-1.98-11.62-2.81-4.04-1.75-6.06-4.31-6.06-7.69,0-5.75,2.67-11.73,8-17.94,4.79-5.58,9.31-8.37,13.56-8.37,1.58,0,3.04,1.04,4.38,3.12.96,1.58,1.92,3.17,2.88,4.75,2.33,2.63,4.48,3.94,6.44,3.94v8.75ZM86.38,243.19c0,.67-.27,1.81-.81,3.44-.67,1.96-1.4,3.38-2.19,4.25-5.54-3.08-8.31-4.98-8.31-5.69,0-.29.42-1.46,1.25-3.5.92-2.25,1.56-3.38,1.94-3.38,5.42,2.42,8.12,4.04,8.12,4.88ZM73.88,246.81c0,1-.25,2.25-.75,3.75-.62,1.75-1.33,2.63-2.12,2.63-.38,0-1.9-.79-4.56-2.38-2.92-1.67-4.38-2.85-4.38-3.56,0-.75,1.02-3.35,3.06-7.81,1.25,1.25,3.25,2.67,6,4.25,1.83,1.08,2.75,2.12,2.75,3.12ZM35.25,239.94c-1.62,5.17-2.44,8.46-2.44,9.87,0,2.17.54,3.25,1.62,3.25.79,0,1.65-.96,2.56-2.87h.12l.19.25c-.75,4.04-1.83,6.06-3.25,6.06h-.5c-1.04,0-1.77-.69-2.19-2.06-.08-.58-.12-1.04-.12-1.38v-1.69c0-3.33,1.25-7.15,3.75-11.44h.25ZM90.12,219.62c-1.62,5.17-2.44,8.46-2.44,9.88,0,2.17.54,3.25,1.62,3.25.79,0,1.65-.96,2.56-2.88h.12l.19.25c-.75,4.04-1.83,6.06-3.25,6.06h-.5c-1.04,0-1.77-.69-2.19-2.06-.08-.58-.12-1.04-.12-1.38v-1.69c0-3.33,1.25-7.14,3.75-11.44h.25ZM51,162.25c-1.62,5.17-2.44,8.46-2.44,9.88,0,2.17.54,3.25,1.62,3.25.79,0,1.65-.96,2.56-2.88h.12l.19.25c-.75,4.04-1.83,6.06-3.25,6.06h-.5c-1.04,0-1.77-.69-2.19-2.06-.08-.58-.12-1.04-.12-1.38v-1.69c0-3.33,1.25-7.15,3.75-11.44h.25ZM22.25,164c-2.75,8.83-4.12,14.44-4.12,16.81,0,3.71.92,5.56,2.75,5.56,1.33,0,2.79-1.62,4.38-4.88h.19l.31.44c-1.25,6.87-3.08,10.31-5.5,10.31h-.88c-1.79,0-3.04-1.17-3.75-3.5-.12-1-.19-1.79-.19-2.38v-2.88c0-5.67,2.12-12.17,6.38-19.5h.44ZM57.88,135.56c1,0,2.04.9,3.12,2.69v.38c0,1.08-.42,1.98-1.25,2.69h-.19c-1.29-1.17-2.02-1.75-2.19-1.75h-.94c-1,0-2.31,3.63-3.94,10.88-1.79,3.58-3.35,5.94-4.69,7.06-4.75,3.67-9.1,6.1-13.06,7.31-5.54,1.79-8.48,2.69-8.81,2.69l-.19-.25c.88-.67,4.23-2.44,10.06-5.31,5.83-3.04,10.15-5.63,12.94-7.75,0-.17.52-.69,1.56-1.56,0-2.12-1.38-5.38-4.12-9.75h-.94c0,.38-.31.56-.94.56-.92,0-2.06-.81-3.44-2.44v-.25c.5-1.42,1.27-2.56,2.31-3.44h.69c3.21,0,5.67,3.23,7.38,9.69v.56h.12c1.54-8,3.71-12,6.5-12ZM121.5,186c-1.25,0-2.88-.5-4.88-1.5-2.33-1.17-4.04-2.54-5.12-4.12-.88-1.33-1.25-2.98-1.12-4.94-1.83,3.75-3.31,6.17-4.44,7.25-2.29,2.21-5.04,3.31-8.25,3.31v-8.75c3.92,0,6.81-.67,8.69-2,.5-.33,1.12-1.23,1.88-2.69.88-1.71,1.4-2.67,1.56-2.87,2.08-2.71,3.13-3.25,3.13-1.63,0,.58-.17,1.36-.5,2.31.21.58.54,1.31,1,2.19.5.83,1.71,1.83,3.62,3,1.92,1.13,3.4,1.69,4.44,1.69v8.75ZM122.5,208.19c0,.67-.27,1.81-.81,3.44-.67,1.96-1.4,3.38-2.19,4.25-1.54-.88-3.1-1.73-4.69-2.56-2.04-1.25-3.06-2.21-3.06-2.87,1.46-4.54,2.5-6.81,3.12-6.81,5.08,2.21,7.62,3.73,7.62,4.56ZM110.56,212.06c0,1.04-.27,2.29-.81,3.75-.62,1.75-1.33,2.63-2.12,2.63-.33,0-1.58-.63-3.75-1.88-2.38-1.42-3.56-2.48-3.56-3.19,0-.67,1.02-3.23,3.06-7.69,1.25,1.25,2.98,2.52,5.19,3.81,1.33.75,2,1.6,2,2.56ZM108.56,139.94c-1.62,5.17-2.44,8.46-2.44,9.87,0,2.17.54,3.25,1.62,3.25.79,0,1.65-.96,2.56-2.87h.13l.19.25c-.75,4.04-1.83,6.06-3.25,6.06h-.5c-1.04,0-1.77-.69-2.19-2.06-.08-.58-.13-1.04-.13-1.38v-1.69c0-3.33,1.25-7.15,3.75-11.44h.25ZM195.69,186c-7.5.42-16.27.9-26.31,1.44-.62.04-1.5-.92-2.62-2.88-2.83,1.04-4.81,1.69-5.94,1.94-2.25.54-4.98.85-8.19.94-2.71.04-5.54-.69-8.5-2.19-.62.79-1.48,2.25-2.56,4.38-.58,1.17-.98,1.17-1.19,0-.17-.83.19-2.54,1.06-5.12-1.5-1.29-3.58-4.42-6.25-9.38-2.04,4.21-4,7.08-5.88,8.62-1.87,1.5-4.46,2.25-7.75,2.25v-8.75c3,0,5.94-1.33,8.81-4,1.17-1.08,3.35-3.65,6.56-7.69.33-.42.6-.62.81-.62.42,0,.62.52.62,1.56v2.12c.71,3.67,2.79,6.54,6.25,8.62,1.5-2.67,3.02-5.33,4.56-8,1.71-2.75,4.14-6.02,7.31-9.81,5.42-6.5,10.96-9.75,16.62-9.75,4.21,0,8.15,1.23,11.81,3.69,3.71,2.46,5.56,5.21,5.56,8.25,0,7.92-3.65,13.44-10.94,16.56-.12,0,1.81-.15,5.81-.44,4.04-.29,7.48-.46,10.31-.5v8.75ZM186.69,166.5c-1.29-2.38-3.58-4.44-6.88-6.19-2.87-1.46-5.33-2.19-7.37-2.19-5.75,0-11.08,2.77-16,8.31-1.88,2.08-4.61,6.12-8.19,12.12,2.08.29,5.15.44,9.19.44,4.67,0,10.06-1.38,16.19-4.12,5.71-2.54,10.06-5.33,13.06-8.38ZM176.19,195.56c1.79.17,2.69,1.06,2.69,2.69v.5c0,3.38-2.42,6.06-7.25,8.06-1.29.54-2.77.81-4.44.81l-4.13-.81c-4.04,0-8.89,3.27-14.56,9.81-3,2.96-5.44,4.44-7.31,4.44,0,.17-.73.38-2.19.63v-.19c0-.12,2.21-1.65,6.62-4.56,1.25-.96,4-3.92,8.25-8.88,4-3.79,7.23-5.69,9.69-5.69h3.13c4.25-4.54,7.37-6.81,9.37-6.81h.13ZM168.12,202.88l.31.12h.31c2.75,0,5.5-.96,8.25-2.88l.19-.31c-.46-.71-1.15-1.06-2.06-1.06h-.69c-1.42,0-3.52,1.38-6.31,4.12ZM134.56,144.44c-1.62,5.17-2.44,8.46-2.44,9.87,0,2.17.54,3.25,1.62,3.25.79,0,1.65-.96,2.56-2.87h.13l.19.25c-.75,4.04-1.83,6.06-3.25,6.06h-.5c-1.04,0-1.77-.69-2.19-2.06-.08-.58-.13-1.04-.13-1.38v-1.69c0-3.33,1.25-7.15,3.75-11.44h.25ZM188.12,110.81c-2.46,7.88-3.69,12.88-3.69,15,0,3.29.83,4.94,2.5,4.94,1.17,0,2.46-1.46,3.87-4.38h.19l.31.38c-1.17,6.17-2.83,9.25-5,9.25h-.75c-1.58,0-2.69-1.04-3.31-3.12-.12-.88-.19-1.58-.19-2.12v-2.56c0-5.04,1.9-10.83,5.69-17.38h.38ZM231.19,127.94c0,.67-.27,1.83-.81,3.5-.62,1.92-1.33,3.33-2.12,4.25-1.67-.92-3.31-1.83-4.94-2.75-2.25-1.29-3.37-2.27-3.37-2.94,0-.25.42-1.42,1.25-3.5.87-2.25,1.5-3.38,1.87-3.38,5.42,2.38,8.13,3.98,8.13,4.81ZM218.69,131.62c0,1-.25,2.23-.75,3.69-.67,1.75-1.38,2.63-2.13,2.63-.37,0-1.89-.79-4.56-2.38-2.92-1.67-4.38-2.85-4.38-3.56,0-.38,1.02-2.94,3.06-7.69,1.21,1.21,3.21,2.61,6,4.19,1.83,1.04,2.75,2.08,2.75,3.12ZM236.81,186c-4.33,0-7.77-.98-10.31-2.94-2.5-2-4.58-4.6-6.25-7.81-4.33,2.79-9.42,5.38-15.25,7.75-4.96,2-8.06,3-9.31,3v-8.75c1.87,0,4.89-.69,9.06-2.06,4.62-1.5,8.9-3.33,12.81-5.5-1.33-3.92-2-7.67-2-11.25,0-9,2.54-13.5,7.63-13.5,1.58,0,3.29,1.67,5.12,5,1.83,3.33,2.75,6.37,2.75,9.12-.04,4-.64,6.79-1.81,8.38-1,1.37-2.58,2.96-4.75,4.75,1.75,1.96,3.73,3.37,5.94,4.25,1.37.54,3.5.81,6.37.81v8.75ZM228.44,161.25c-.29-1.83-1.4-3.65-3.31-5.44-1.71-1.58-3.02-2.37-3.94-2.37s-1.65.54-2.06,1.62c-.08.25-.42,1.73-1,4.44.54,1.71,1.6,4.4,3.19,8.06,3.46-2.37,5.83-4.48,7.13-6.31ZM213.06,95.31c.29,0,.44.19.44.56-1.08,2.79-1.62,4.33-1.62,4.62,2.88,2.17,4.31,4.31,4.31,6.44v.25c0,3.87-1.29,6.37-3.88,7.5-.92.29-1.67.44-2.25.44h-.31c-1.58,0-2.52-1-2.81-3v-1.31c1.08-6.79,2.77-11.81,5.06-15.06.38-.29.73-.44,1.06-.44ZM210.06,104.69c-.87,1.92-1.31,3.42-1.31,4.5v.69c0,.71.33,1.06,1,1.06,1.71,0,3.35-.79,4.94-2.38,0-.92-1.54-2.21-4.63-3.87ZM219.31,179.75c-1.62,5.17-2.44,8.46-2.44,9.88,0,2.17.54,3.25,1.62,3.25.79,0,1.65-.96,2.56-2.88h.13l.19.25c-.75,4.04-1.83,6.06-3.25,6.06h-.5c-1.04,0-1.77-.69-2.19-2.06-.08-.58-.13-1.04-.13-1.38v-1.69c0-3.33,1.25-7.15,3.75-11.44h.25ZM251.75,162c.17,8-1.06,13.81-3.69,17.44-3.17,4.37-6.92,6.56-11.25,6.56v-8.75c3.46,0,6.02-.5,7.69-1.5,1.33-.75,2.46-2.1,3.38-4.06.08-.13.12-.46.12-1,0-3.83-2.1-21.96-6.31-54.38-.71-5.58-1.25-11.87-1.63-18.87-.08-.25-.46-.83-1.12-1.75-.25-.33-.38-.79-.38-1.38,0-1.12.67-3.77,2-7.94.08-.29.21-.44.38-.44.42,0,1,.96,1.75,2.88,4.29,8.12,6.44,13.4,6.44,15.81,0,.42-.12.62-.38.62-.21,0-.48-.12-.81-.38-.08-.08-1.19-1.29-3.31-3.62,2.12,15.5,4.5,35.75,7.12,60.75ZM246.38,190.25h.94c1.58,0,2.52,1,2.81,3v1.31c0,4.04-3.25,8.61-9.75,13.69l-.94.19v-.19c5.12-5.58,7.69-9.21,7.69-10.88v-.19c0-.75-.38-1.31-1.12-1.69h-1.69c-.46,0-1.14.31-2.06.94-.25,0-.38-.19-.38-.56.67-3.75,2.17-5.62,4.5-5.62ZM276.25,165.75c.17,2.08.25,4.1.25,6.06,0,6.92-.81,11.9-2.44,14.94-.62,1.17-1.08,1.75-1.37,1.75-.46,0-.52-1.33-.19-4,.42-3.38.44-6.9.06-10.56-1.5-11.92-3.58-29.83-6.25-53.75-.33-4.38-.9-10.69-1.69-18.94-.12-.46-.69-1.69-1.69-3.69-.25-.46.42-3.1,2-7.94.08-.29.21-.44.37-.44.42,0,1,.9,1.75,2.69,1.29,2.75,2.56,5.5,3.81,8.25,2,4.25,3,6.9,3,7.94,0,.33-.12.5-.38.5-.17,0-.44-.12-.81-.37-1.04-.79-2.15-1.79-3.31-3-.08,1.17.77,8.83,2.56,23,2.17,16.87,3.6,29.39,4.31,37.56ZM371.12,150.81c-.25,1.38-.48,2.75-.69,4.13-.46,2.12-1,3.19-1.63,3.19-.75,0-2.17-.54-4.25-1.62-1.92-1-2.96-1.62-3.12-1.88-.13-.29-.23-.79-.31-1.5.46-1.42,1.02-3.46,1.69-6.12.13-.79.35-1.17.69-1.12,0,0,.35.23,1.06.69,1.25.5,3.13,1.38,5.63,2.63.29.08.56.19.81.31s.29.56.12,1.31ZM408.56,186c-3.87,0-7.04-.92-9.5-2.75.38,2,.56,4.08.56,6.25,0,5.75-1.04,10.17-3.12,13.25-2.58,3.79-8.96,8.73-19.12,14.81-12.04,7.25-22.21,10.88-30.5,10.88-8.75,0-15.38-2.81-19.88-8.44-4.12-5.12-6.19-12.17-6.19-21.12,0-5.42.77-11.21,2.31-17.38.29-1.25.6-2.23.94-2.94.63-1.5,1.06-1.67,1.31-.5.21,1.17.04,2.92-.5,5.25-.96,4.04-1.44,7.94-1.44,11.69,0,16.08,8.23,24.12,24.69,24.12,5.83,0,12.9-1.88,21.19-5.62,6.63-3,13-6.67,19.13-11,5.54-3.92,8.29-6.38,8.25-7.38-.38-6.54-2.44-12.62-6.19-18.25-.25-.38-.21-1.81.12-4.31.42-3.17.62-4.92.62-5.25.25-.46.56-.5.94-.12,1.12,1.37,2.79,3.64,5,6.81,3.12,2.17,6.92,3.25,11.37,3.25v8.75ZM319.19,157.81c-3.38,8.17-5.06,13.36-5.06,15.56,0,3.42,1.12,5.12,3.38,5.12,1.67,0,3.46-1.5,5.38-4.5h.25l.38.38c-1.54,6.38-3.79,9.56-6.75,9.56h-1.06c-2.17,0-3.69-1.08-4.56-3.25-.17-.92-.25-1.65-.25-2.19v-2.62c0-5.29,2.6-11.31,7.81-18.06h.5ZM384.5,223c-1.62,5.17-2.44,8.46-2.44,9.88,0,2.17.54,3.25,1.63,3.25.79,0,1.65-.96,2.56-2.88h.12l.19.25c-.75,4.04-1.83,6.06-3.25,6.06h-.5c-1.04,0-1.77-.69-2.19-2.06-.08-.58-.12-1.04-.12-1.38v-1.69c0-3.33,1.25-7.15,3.75-11.44h.25ZM344.06,144.88c1.13,0,2.33,1.15,3.63,3.44.12.21.19.52.19.94v.38c-.46,2.29-.96,3.44-1.5,3.44-.17,0-1-.77-2.5-2.31l-.94-.38c-1.67,0-3.31,4.9-4.94,14.69-1.08,3.04-1.92,4.56-2.5,4.56-.38,0-.75-1.46-1.12-4.38-1.71-5.08-3.23-8.38-4.56-9.88h-.62l-.94.75h-.56c-1.25,0-2.65-1.21-4.19-3.62v-.38c1.29-2.67,2.31-4.25,3.06-4.75h.38c4.17,0,7.27,4.75,9.31,14.25v.19h.19c1.79-11.29,4.33-16.94,7.62-16.94ZM463.5,158.19c-1.62,5.17-2.44,8.46-2.44,9.87,0,2.17.54,3.25,1.63,3.25.79,0,1.65-.96,2.56-2.87h.12l.19.25c-.75,4.04-1.83,6.06-3.25,6.06h-.5c-1.04,0-1.77-.69-2.19-2.06-.08-.58-.12-1.04-.12-1.38v-1.69c0-3.33,1.25-7.15,3.75-11.44h.25ZM416.06,131.06c-1.62,5.17-2.44,8.46-2.44,9.88,0,2.17.54,3.25,1.62,3.25.79,0,1.65-.96,2.56-2.88h.13l.19.25c-.75,4.04-1.83,6.06-3.25,6.06h-.5c-1.04,0-1.77-.69-2.19-2.06-.08-.58-.13-1.04-.13-1.37v-1.69c0-3.33,1.25-7.15,3.75-11.44h.25ZM418.75,189.44c-1.62,5.17-2.44,8.46-2.44,9.87,0,2.17.54,3.25,1.63,3.25.79,0,1.65-.96,2.56-2.87h.12l.19.25c-.75,4.04-1.83,6.06-3.25,6.06h-.5c-1.04,0-1.77-.69-2.19-2.06-.08-.58-.12-1.04-.12-1.38v-1.69c0-3.33,1.25-7.15,3.75-11.44h.25ZM453.25,181.75h.69c.75,0,1.62.88,2.62,2.62.17,1,.25,1.65.25,1.94,0,2.04-.58,3.5-1.75,4.38h-.62c-1.08,0-2.77-1.04-5.06-3.13-.58,1.75-1.46,3.42-2.62,5-3.88,3.75-7.81,6.4-11.81,7.94-7.13,1.67-11.35,2.58-12.69,2.75v-.38c13.42-5.58,21.29-9.69,23.62-12.31,1-1.04,1.96-2.54,2.88-4.5.62-1,1-1.5,1.12-1.5h.38l.25.13c.88-1.96,1.79-2.94,2.75-2.94ZM452.44,185.81c1.67,1.25,2.79,1.88,3.37,1.88v-.5c-.46-1.42-1.12-2.13-2-2.13h-.12c-.5,0-.92.25-1.25.75ZM435.56,126.06h.31c9.38,0,25.9,3.46,49.56,10.38.21.37.31.67.31.87-1.38,5.75-2.96,8.63-4.75,8.63-13.46,3.29-24.73,6.85-33.81,10.69l.25,1.5v3.81c0,.29-.29.6-.88.94-1.46-1.25-2.54-2.83-3.25-4.75-8,2.42-14.12,5.08-18.37,8,0,.29-.31.58-.94.88,0,.25.4,1.62,1.19,4.12,3.92-1.17,6.79-1.75,8.62-1.75h1.75c4.29,0,6.77,3.85,7.44,11.56,0,4.04-1.58,7.1-4.75,9.19l-1.75.31h-1.5c-3.54,0-7.21-3.36-11-10.06-5.71,2.71-9.46,4.38-11.25,5-2.29.62-3.77.94-4.44.94l-.31-.62v-8c0-.42,1.69-.81,5.06-1.19l8.31-3.56-.31-2.69c0-7.62,3.35-12.85,10.06-15.69.12,0,2.5-1,7.12-3-8.88-6.96-13.31-11.79-13.31-14.5v-1.19c0-5.54,3.54-8.81,10.62-9.81ZM429.38,134.69v.56c0,.21,5.23,4.75,15.69,13.62,15.13-4.92,23.54-7.38,25.25-7.38v-.31c-15.54-4.75-27.42-7.13-35.62-7.13-1.29,0-3.06.21-5.31.63ZM430.56,178.25v.31c1.96,2.17,3.94,3.25,5.94,3.25h1.44c.62,0,.94-.39.94-1.19-.62-1.75-2.31-2.62-5.06-2.62h-1.81l-1.44.25ZM475.88,156.19c3.75,0,5.62.98,5.62,2.94s-2.9,5.58-8.69,11.12c-.87,1-1.31,1.92-1.31,2.75v.12c0,1.42,1.29,2.12,3.88,2.12h1c.08,0,.12.06.12.19l.31-.19h1.13c2.5,0,6.12-.65,10.87-1.94l.13.31c-3.83,3.67-8.08,5.5-12.75,5.5h-2.13c-3-.67-4.5-1.96-4.5-3.88v-1.31c0-2.67,2.1-5.94,6.31-9.81l2.44-2.62c-.54-.83-2.27-1.25-5.19-1.25-.75,0-1.83.27-3.25.81-.08-.25-.12-.42-.12-.5,1.12-2.71,2.35-4.06,3.69-4.06,0-.17.81-.27,2.44-.31ZM540.81,186c-1.33.04-2.46-.15-3.37-.56.37,1.83.56,3.58.56,5.25,0,2.96-.75,6.52-2.25,10.69-.38,1.04-2.35,3.15-5.94,6.31-4.42,3.96-9.04,7.21-13.87,9.75-6.46,3.37-12.58,5.06-18.38,5.06-9.42,0-14.12-6.08-14.12-18.25,0-8.83,1.62-16.46,4.87-22.88.88-1.75,1.6-2.62,2.19-2.62.25,0,.38.25.38.75,0,.62-.25,1.52-.75,2.69-2.42,5.58-3.62,11.06-3.62,16.44,0,10.08,3.88,15.1,11.62,15.06,8.04-.04,16.4-2.9,25.06-8.56,7.17-4.71,11.12-8.35,11.87-10.94.08-.33.13-.69.13-1.06,0-2.33-2.13-6.69-6.38-13.06-.12-.17-.19-.46-.19-.87,0-.67.19-1.96.56-3.88.37-1.96.56-3.23.56-3.81.21-.38.5-.42.88-.12.96,1.38,2.33,3.17,4.12,5.38.29.33,2.31.5,6.06.5v8.75ZM505.75,129.19h.25c5.38,3.12,8.06,7.44,8.06,12.94v.88c0,2.83-1.54,7.25-4.62,13.25l-.38,1.88c0,2.38.83,3.56,2.5,3.56,1.13,0,2.35-1.06,3.69-3.19h.56c-1.08,4.58-2.69,6.88-4.81,6.88h-.94c-2.21-.29-3.31-1.85-3.31-4.69v-.44c0-2.5,1.46-6.54,4.38-12.12.29-1.42.44-2.46.44-3.12v-1c0-3.88-2.71-7.77-8.12-11.69v-.19c.79-1.29,1.56-2.27,2.31-2.94ZM517.69,177.81c-1.63,5.17-2.44,8.46-2.44,9.88,0,2.17.54,3.25,1.62,3.25.79,0,1.65-.96,2.56-2.88h.12l.19.25c-.75,4.04-1.83,6.06-3.25,6.06h-.5c-1.04,0-1.77-.69-2.19-2.06-.08-.58-.12-1.04-.12-1.37v-1.69c0-3.33,1.25-7.15,3.75-11.44h.25ZM536.44,214.81c-1.63,5.17-2.44,8.46-2.44,9.88,0,2.17.54,3.25,1.62,3.25.79,0,1.65-.96,2.56-2.88h.12l.19.25c-.75,4.04-1.83,6.06-3.25,6.06h-.5c-1.04,0-1.77-.69-2.19-2.06-.08-.58-.12-1.04-.12-1.37v-1.69c0-3.33,1.25-7.15,3.75-11.44h.25ZM555.75,162c.17,8-1.06,13.81-3.69,17.44-3.17,4.37-6.92,6.56-11.25,6.56v-8.75c3.46,0,6.02-.5,7.69-1.5,1.33-.75,2.46-2.1,3.38-4.06.08-.13.12-.46.12-1,0-3.83-2.1-21.96-6.31-54.38-.71-5.58-1.25-11.87-1.63-18.87-.08-.25-.46-.83-1.12-1.75-.25-.33-.38-.79-.38-1.38,0-1.12.67-3.77,2-7.94.08-.29.21-.44.38-.44.42,0,1,.96,1.75,2.88,4.29,8.12,6.44,13.4,6.44,15.81,0,.42-.12.62-.38.62-.21,0-.48-.12-.81-.38-.08-.08-1.19-1.29-3.31-3.62,2.12,15.5,4.5,35.75,7.12,60.75ZM550.38,190.25h.94c1.58,0,2.52,1,2.81,3v1.31c0,4.04-3.25,8.61-9.75,13.69l-.94.19v-.19c5.12-5.58,7.69-9.21,7.69-10.88v-.19c0-.75-.38-1.31-1.12-1.69h-1.69c-.46,0-1.15.31-2.06.94-.25,0-.38-.19-.38-.56.67-3.75,2.17-5.62,4.5-5.62ZM580.25,165.75c.17,2.08.25,4.1.25,6.06,0,6.92-.81,11.9-2.44,14.94-.62,1.17-1.08,1.75-1.37,1.75-.46,0-.52-1.33-.19-4,.42-3.38.44-6.9.06-10.56-1.5-11.92-3.58-29.83-6.25-53.75-.33-4.38-.9-10.69-1.69-18.94-.12-.46-.69-1.69-1.69-3.69-.25-.46.42-3.1,2-7.94.08-.29.21-.44.37-.44.42,0,1,.9,1.75,2.69,1.29,2.75,2.56,5.5,3.81,8.25,2,4.25,3,6.9,3,7.94,0,.33-.12.5-.38.5-.17,0-.44-.12-.81-.37-1.04-.79-2.15-1.79-3.31-3-.08,1.17.77,8.83,2.56,23,2.17,16.87,3.6,29.39,4.31,37.56ZM652.88,186c-3.88,0-7.44-1.81-10.69-5.44-2.54-2.83-5-9.33-7.38-19.5-.67,2.83-1.58,5.15-2.75,6.94-3.04,4.58-8.25,9.56-15.62,14.94-8.63,6.25-15.94,9.37-21.94,9.37-6.33,0-9.5-4.71-9.5-14.12,0-7.38,2.81-15.77,8.44-25.19,1.12-1.83,1.96-2.75,2.5-2.75.25,0,.37.19.37.56,0,.75-.35,1.81-1.06,3.19-5.33,10.29-7.85,17.81-7.56,22.56.25,4.54,2.92,6.81,8,6.81,1.21,0,3.73-.73,7.56-2.19,4.92-1.92,9.27-4.25,13.06-7,3.21-2.33,5.54-4.15,7-5.44,4.75-4.25,8.23-8.56,10.44-12.94-.25-1.29-.62-3.23-1.12-5.81-.17-.92-1.48-5.04-3.94-12.38-1.92-5.29-3.85-11.12-5.81-17.5,0,0,.38-2.46,1.12-7.38.17-.25.35-.38.56-.38,1.38,0,4.52,7.54,9.44,22.62,1.79,5.5,3.65,13.42,5.56,23.75,1.13,6.12,3.02,10.83,5.69,14.12,2.29,2.92,4.83,4.38,7.62,4.38v8.75ZM608.69,140.38c-1.63,5.17-2.44,8.46-2.44,9.88,0,2.17.54,3.25,1.62,3.25.79,0,1.65-.96,2.56-2.88h.12l.19.25c-.75,4.04-1.83,6.06-3.25,6.06h-.5c-1.04,0-1.77-.69-2.19-2.06-.08-.58-.12-1.04-.12-1.38v-1.69c0-3.33,1.25-7.14,3.75-11.44h.25ZM627.06,179c-1.62,5.17-2.44,8.46-2.44,9.88,0,2.17.54,3.25,1.62,3.25.79,0,1.65-.96,2.56-2.88h.13l.19.25c-.75,4.04-1.83,6.06-3.25,6.06h-.5c-1.04,0-1.77-.69-2.19-2.06-.08-.58-.13-1.04-.13-1.38v-1.69c0-3.33,1.25-7.15,3.75-11.44h.25ZM649,135.12c-1.62,5.17-2.44,8.46-2.44,9.88,0,2.17.54,3.25,1.63,3.25.79,0,1.65-.96,2.56-2.88h.12l.19.25c-.75,4.04-1.83,6.06-3.25,6.06h-.5c-1.04,0-1.77-.69-2.19-2.06-.08-.58-.12-1.04-.12-1.38v-1.69c0-3.33,1.25-7.14,3.75-11.44h.25ZM649.94,103.69c1.12,0,2.33,1.14,3.62,3.44.13.21.19.52.19.94v.38c-.46,2.29-.96,3.44-1.5,3.44-.17,0-1-.77-2.5-2.31l-.94-.37c-1.67,0-3.31,4.89-4.94,14.69-1.08,3.04-1.92,4.56-2.5,4.56-.38,0-.75-1.46-1.12-4.38-1.71-5.08-3.23-8.37-4.56-9.87h-.63l-.94.75h-.56c-1.25,0-2.65-1.21-4.19-3.63v-.37c1.29-2.67,2.31-4.25,3.06-4.75h.37c4.17,0,7.27,4.75,9.31,14.25v.19h.19c1.79-11.29,4.33-16.94,7.63-16.94ZM635,181.31c3.75,0,5.62.98,5.62,2.94s-2.9,5.58-8.69,11.12c-.88,1-1.31,1.92-1.31,2.75v.12c0,1.42,1.29,2.12,3.88,2.12h1c.08,0,.12.06.12.19l.31-.19h1.12c2.5,0,6.13-.65,10.88-1.94l.12.31c-3.83,3.67-8.08,5.5-12.75,5.5h-2.12c-3-.67-4.5-1.96-4.5-3.88v-1.31c0-2.67,2.1-5.94,6.31-9.81l2.44-2.62c-.54-.83-2.27-1.25-5.19-1.25-.75,0-1.83.27-3.25.81-.08-.25-.12-.42-.12-.5,1.12-2.71,2.35-4.06,3.69-4.06,0-.17.81-.27,2.44-.31ZM631.06,85.88c-1.62,5.17-2.44,8.46-2.44,9.88,0,2.17.54,3.25,1.62,3.25.79,0,1.65-.96,2.56-2.88h.13l.19.25c-.75,4.04-1.83,6.06-3.25,6.06h-.5c-1.04,0-1.77-.69-2.19-2.06-.08-.58-.13-1.04-.13-1.38v-1.69c0-3.33,1.25-7.15,3.75-11.44h.25ZM676.75,186c-1.25,0-2.88-.5-4.88-1.5-2.33-1.17-4.04-2.54-5.12-4.12-.88-1.33-1.25-2.98-1.12-4.94-1.83,3.75-3.31,6.17-4.44,7.25-2.29,2.21-5.04,3.31-8.25,3.31v-8.75c3.92,0,6.81-.67,8.69-2,.5-.33,1.12-1.23,1.88-2.69.88-1.71,1.4-2.67,1.56-2.87,2.08-2.71,3.13-3.25,3.13-1.63,0,.58-.17,1.36-.5,2.31.21.58.54,1.31,1,2.19.5.83,1.71,1.83,3.62,3,1.92,1.13,3.4,1.69,4.44,1.69v8.75ZM668.88,202c0,2.88-.83,5.31-2.5,7.31-2.42-1.25-4.85-2.48-7.31-3.69-1.21-.71-1.81-1.44-1.81-2.19,0,.25.75-2.33,2.25-7.75,1.08.92,3.12,2.08,6.12,3.5,2.17,1.04,3.25,1.98,3.25,2.81ZM660,131.25c-1.62,5.17-2.44,8.46-2.44,9.88,0,2.17.54,3.25,1.63,3.25.79,0,1.65-.96,2.56-2.88h.12l.19.25c-.75,4.04-1.83,6.06-3.25,6.06h-.5c-1.04,0-1.77-.69-2.19-2.06-.08-.58-.12-1.04-.12-1.38v-1.69c0-3.33,1.25-7.15,3.75-11.44h.25ZM674.19,145.94c-1.63,5.17-2.44,8.46-2.44,9.87,0,2.17.54,3.25,1.62,3.25.79,0,1.65-.96,2.56-2.87h.12l.19.25c-.75,4.04-1.83,6.06-3.25,6.06h-.5c-1.04,0-1.77-.69-2.19-2.06-.08-.58-.12-1.04-.12-1.38v-1.69c0-3.33,1.25-7.15,3.75-11.44h.25ZM729.19,158.81c-.79,1.88-2.04,3.98-3.75,6.31-7.17,3.92-17.35,9.12-30.56,15.62-8.12,3.5-14.15,5.25-18.06,5.25v-8.75c7.04,0,12.77-.94,17.19-2.81-9.71-5.58-14.56-11.63-14.56-18.13,0-5.04,1.75-9.31,5.25-12.81,3.29-3.33,7.1-5.04,11.44-5.12,4.62-.12,9.04.83,13.25,2.88,3.58,1.71,5.38,3.12,5.38,4.25,0,.29-.23.44-.69.44-.33,0-.75-.06-1.25-.19-3.67-1-6.29-1.5-7.87-1.5-3.79,0-8.38.9-13.75,2.69-5.63,1.87-8.44,3.58-8.44,5.12,0,2.75,2.19,6.04,6.56,9.88,5,4.33,10.29,6.5,15.88,6.5.58,0,1.17-.02,1.75-.06,4.46-2.42,11.42-6,20.87-10.75,1.29-.58,1.94-.62,1.94-.12,0,.29-.19.73-.56,1.31ZM703.12,184.06h.5c.83.63,1.25,1.48,1.25,2.56-.67,1.38-1.35,2.33-2.06,2.88h-.31c-.17-.96-.65-1.44-1.44-1.44-1.25,0-2.17,1.06-2.75,3.19.96,1.17,2.02,1.75,3.19,1.75h1.12c.75,0,2.56-1.38,5.44-4.12.21.04.31.15.31.31v.94c0,2.46-1.48,4.54-4.44,6.25-4.79,4.54-7.19,7.79-7.19,9.75v.19c0,1.25,1.23,2,3.69,2.25h2.69c2.5,0,6.06-.64,10.69-1.94l.19.31c-3.79,3.62-8,5.44-12.62,5.44h-2.06c-3-.62-4.5-1.9-4.5-3.81v-1.44c0-2.62,1.4-5.88,4.19-9.75-2.46-.88-3.69-2-3.69-3.38v-1.12c0-2.21,2.13-5.04,6.38-8.5.71-.21,1.19-.31,1.44-.31ZM719.81,175.19c-1.62,5.17-2.44,8.46-2.44,9.87,0,2.17.54,3.25,1.62,3.25.79,0,1.65-.96,2.56-2.87h.13l.19.25c-.75,4.04-1.83,6.06-3.25,6.06h-.5c-1.04,0-1.77-.69-2.19-2.06-.08-.58-.13-1.04-.13-1.38v-1.69c0-3.33,1.25-7.15,3.75-11.44h.25ZM714.12,118.69c-1.62,5.17-2.44,8.46-2.44,9.87,0,2.17.54,3.25,1.62,3.25.79,0,1.65-.96,2.56-2.87h.12l.19.25c-.75,4.04-1.83,6.06-3.25,6.06h-.5c-1.04,0-1.77-.69-2.19-2.06-.08-.58-.12-1.04-.12-1.38v-1.69c0-3.33,1.25-7.15,3.75-11.44h.25ZM837.56,177.62c-.58,1.92-3.54,4.92-8.87,9-5.96,4.54-12.33,8.33-19.13,11.38-8.37,3.75-15.98,5.6-22.81,5.56-6.42-.04-11.56-2.52-15.44-7.44-3.58-4.58-5.25-10.08-5-16.5.33-8.12,2.1-15.4,5.31-21.81,1.71-3.37,2.9-5.06,3.56-5.06.17.04.25.21.25.5,0,.96-.63,2.75-1.88,5.38-2.96,6.12-4.35,12.17-4.19,18.12.12,4.96,1.9,9.15,5.31,12.56,3.42,3.42,7.56,5.13,12.44,5.13,7.21,0,15-1.71,23.38-5.13,6.46-2.58,12.46-5.83,18-9.75,4.92-3.42,7.15-5.44,6.69-6.06-.75-1.08-3.5-2.06-8.25-2.94-6.08-1.17-10.13-2.17-12.13-3-4.17-1.71-6.25-4.14-6.25-7.31,0-8.33,3.54-16.67,10.63-25,5.12-6.04,9.65-9.06,13.56-9.06,3.21,0,4.81,2.33,4.81,7,0,3.58-1,5.37-3,5.37-.17,0-.44-.62-.81-1.87-.38-1.29-1.42-1.94-3.12-1.94-3.29,0-7.21,2.79-11.75,8.38-4.71,5.79-7.06,9.75-7.06,11.88,0,.12.02.23.06.31,1.67,2.38,5.1,4.13,10.31,5.25,7.67,1.67,12.15,2.77,13.44,3.31,2.08.88,3.12,3.02,3.12,6.44,0,2.21-.4,4.65-1.19,7.31ZM815.81,212.94c0,.62-.27,1.75-.81,3.37-.67,1.96-1.38,3.36-2.12,4.19-1.67-.92-3.31-1.83-4.94-2.75-2.29-1.33-3.44-2.31-3.44-2.94,0-.25.44-1.46,1.31-3.62.88-2.13,1.48-3.19,1.81-3.19,5.46,2.33,8.19,3.98,8.19,4.94ZM803.31,216.44c0,1.04-.27,2.29-.81,3.75-.62,1.75-1.31,2.62-2.06,2.62-.38,0-1.9-.79-4.56-2.37-2.92-1.71-4.38-2.92-4.38-3.63,0-.5,1-3.06,3-7.69,1.25,1.21,3.25,2.62,6,4.25,1.88,1.04,2.81,2.06,2.81,3.06ZM801.31,138.62c1.04,0,2.15,1.04,3.31,3.12.08.21.12.5.12.88v.38c-.38,2.08-.83,3.12-1.38,3.12-.12,0-.88-.69-2.25-2.06l-.88-.37c-1.54,0-3.06,4.48-4.56,13.44-1,2.79-1.75,4.19-2.25,4.19-.38,0-.73-1.33-1.06-4-1.58-4.67-2.98-7.69-4.19-9.06h-.56l-.88.69h-.5c-1.17,0-2.46-1.11-3.88-3.31v-.38c1.21-2.42,2.15-3.88,2.81-4.38h.37c3.79,0,6.65,4.38,8.56,13.12v.19h.19c1.63-10.38,3.96-15.56,7-15.56ZM770.31,129.5c-3.54,11.25-5.31,18.42-5.31,21.5,0,4.71,1.17,7.06,3.5,7.06,1.75,0,3.62-2.08,5.62-6.25h.25l.44.56c-1.62,8.79-4,13.19-7.12,13.19h-1.06c-2.29,0-3.9-1.5-4.81-4.5-.17-1.25-.25-2.25-.25-3v-3.69c0-7.25,2.73-15.54,8.19-24.88h.56ZM832.88,193.31c-1.62,5.17-2.44,8.46-2.44,9.88,0,2.17.54,3.25,1.62,3.25.79,0,1.65-.96,2.56-2.88h.12l.19.25c-.75,4.04-1.83,6.06-3.25,6.06h-.5c-1.04,0-1.77-.69-2.19-2.06-.08-.58-.12-1.04-.12-1.37v-1.69c0-3.33,1.25-7.15,3.75-11.44h.25ZM880.88,133.69c0,2.83-.85,5.31-2.56,7.44-2.42-1.25-4.83-2.5-7.25-3.75-1.25-.71-1.87-1.44-1.87-2.19,0,.37.73-2.19,2.19-7.69,1.08.92,3.15,2.06,6.19,3.44,2.21,1,3.31,1.92,3.31,2.75ZM891.06,186.12c-.33,5-1.06,8.44-2.19,10.31-1.12,1.87-5.27,5.39-12.44,10.56-8.33,6-16.5,10.85-24.5,14.56-5.63,1.38-15.19,3.73-28.69,7.06-1.42.33-2.5.5-3.25.5-.58,0-.88-.1-.88-.31,0-1.75,4.83-4.56,14.5-8.44,14-5.67,22.12-9.08,24.38-10.25,6.96-3.62,13.83-7.79,20.62-12.5,7-4.88,10.31-7.9,9.94-9.06-.37-1.25-1.85-4.52-4.44-9.81-2.12-4.46-3.44-8.33-3.94-11.62-.83,0-1.23-.06-1.19-.19.25-2.46.65-4.86,1.19-7.19.17-1.21.65-1.33,1.44-.38,2.54,3.04,4.67,5.29,6.38,6.75.67.58,1,1,1,1.25s-.58.33-1.75.25c-.29-.04-1.02-.1-2.19-.19.04.21,1.21,2.79,3.5,7.75,1.88,4.12,2.71,7.77,2.5,10.94ZM859.81,169.69c-1.62,5.17-2.44,8.46-2.44,9.87,0,2.17.54,3.25,1.62,3.25.79,0,1.65-.96,2.56-2.87h.13l.19.25c-.75,4.04-1.83,6.06-3.25,6.06h-.5c-1.04,0-1.77-.69-2.19-2.06-.08-.58-.13-1.04-.13-1.38v-1.69c0-3.33,1.25-7.15,3.75-11.44h.25ZM878.56,213.19c-1.62,5.17-2.44,8.46-2.44,9.87,0,2.17.54,3.25,1.62,3.25.79,0,1.65-.96,2.56-2.87h.13l.19.25c-.75,4.04-1.83,6.06-3.25,6.06h-.5c-1.04,0-1.77-.69-2.19-2.06-.08-.58-.13-1.04-.13-1.38v-1.69c0-3.33,1.25-7.15,3.75-11.44h.25ZM849.5,113.38h.25c5.38,3.12,8.06,7.44,8.06,12.94v.88c0,2.83-1.54,7.25-4.62,13.25l-.38,1.87c0,2.38.83,3.56,2.5,3.56,1.13,0,2.35-1.06,3.69-3.19h.56c-1.08,4.58-2.69,6.87-4.81,6.87h-.94c-2.21-.29-3.31-1.85-3.31-4.69v-.44c0-2.5,1.46-6.54,4.38-12.13.29-1.42.44-2.46.44-3.12v-1c0-3.88-2.71-7.77-8.12-11.69v-.19c.79-1.29,1.56-2.27,2.31-2.94ZM932.25,186c-3.79,0-7.31-1.81-10.56-5.44-2.46-2.75-4.15-5.64-5.06-8.69-1.21-3.96-2.38-11.5-3.5-22.62-1.25-12.42-2.69-24.02-4.31-34.81-.46-3.17-1.52-7.42-3.19-12.75-1.5-4.92-2.25-7.5-2.25-7.75.58-1.96,1.25-4.48,2-7.56.12-.21.29-.31.5-.31,1.04,0,2.5,3.15,4.38,9.44,1.75,5.88,3.06,11.52,3.94,16.94,1.5,9.58,2.69,19.39,3.56,29.44.42,5.46.85,10.92,1.31,16.38.79,6.33,2.75,11.27,5.88,14.81,2.46,2.79,4.9,4.19,7.31,4.19v8.75ZM916.31,79.19h.19c4.62,3.5,6.94,7.77,6.94,12.81v1.56c0,2.46-.56,4.31-1.69,5.56h-.12c-.21,0-.31-.15-.31-.44.29-1.54.44-2.92.44-4.12,0-3.92-2.38-8-7.12-12.25.12-.79.69-1.83,1.69-3.12ZM925.31,120.25c-1.62,5.17-2.44,8.46-2.44,9.88,0,2.17.54,3.25,1.62,3.25.79,0,1.65-.96,2.56-2.88h.13l.19.25c-.75,4.04-1.83,6.06-3.25,6.06h-.5c-1.04,0-1.77-.69-2.19-2.06-.08-.58-.13-1.04-.13-1.38v-1.69c0-3.33,1.25-7.15,3.75-11.44h.25ZM909.06,165c-1.62,5.17-2.44,8.46-2.44,9.88,0,2.17.54,3.25,1.62,3.25.79,0,1.65-.96,2.56-2.88h.13l.19.25c-.75,4.04-1.83,6.06-3.25,6.06h-.5c-1.04,0-1.77-.69-2.19-2.06-.08-.58-.13-1.04-.13-1.38v-1.69c0-3.33,1.25-7.15,3.75-11.44h.25ZM984.69,158.81c-.79,1.88-2.04,3.98-3.75,6.31-7.17,3.92-17.35,9.12-30.56,15.62-8.12,3.5-14.15,5.25-18.06,5.25v-8.75c7.04,0,12.77-.94,17.19-2.81-9.71-5.58-14.56-11.63-14.56-18.13,0-5.04,1.75-9.31,5.25-12.81,3.29-3.33,7.1-5.04,11.44-5.12,4.62-.12,9.04.83,13.25,2.88,3.58,1.71,5.38,3.12,5.38,4.25,0,.29-.23.44-.69.44-.33,0-.75-.06-1.25-.19-3.67-1-6.29-1.5-7.87-1.5-3.79,0-8.38.9-13.75,2.69-5.63,1.87-8.44,3.58-8.44,5.12,0,2.75,2.19,6.04,6.56,9.88,5,4.33,10.29,6.5,15.88,6.5.58,0,1.17-.02,1.75-.06,4.46-2.42,11.42-6,20.87-10.75,1.29-.58,1.94-.62,1.94-.12,0,.29-.19.73-.56,1.31ZM948.25,113.19c0,2.92-.85,5.37-2.56,7.37-2.46-1.25-4.92-2.5-7.38-3.75-1.21-.67-1.81-1.39-1.81-2.19.5-1.46,1.27-4.02,2.31-7.69,1.08.87,3.15,2.02,6.19,3.44,2.17,1.04,3.25,1.98,3.25,2.81ZM958.62,184.06h.5c.83.63,1.25,1.48,1.25,2.56-.67,1.38-1.35,2.33-2.06,2.88h-.31c-.17-.96-.65-1.44-1.44-1.44-1.25,0-2.17,1.06-2.75,3.19.96,1.17,2.02,1.75,3.19,1.75h1.12c.75,0,2.56-1.38,5.44-4.12.21.04.31.15.31.31v.94c0,2.46-1.48,4.54-4.44,6.25-4.79,4.54-7.19,7.79-7.19,9.75v.19c0,1.25,1.23,2,3.69,2.25h2.69c2.5,0,6.06-.64,10.69-1.94l.19.31c-3.79,3.62-8,5.44-12.62,5.44h-2.06c-3-.62-4.5-1.9-4.5-3.81v-1.44c0-2.62,1.4-5.88,4.19-9.75-2.46-.88-3.69-2-3.69-3.38v-1.12c0-2.21,2.13-5.04,6.38-8.5.71-.21,1.19-.31,1.44-.31ZM968.44,112.12c-1.63,5.17-2.44,8.46-2.44,9.88,0,2.17.54,3.25,1.62,3.25.79,0,1.65-.96,2.56-2.88h.12l.19.25c-.75,4.04-1.83,6.06-3.25,6.06h-.5c-1.04,0-1.77-.69-2.19-2.06-.08-.58-.12-1.04-.12-1.38v-1.69c0-3.33,1.25-7.14,3.75-11.44h.25ZM1035.12,177.69c0,1.25-.24,2.87-.74,4.87-.63,2.54-1.38,3.92-2.26,4.13-.62,0-2.14-.42-4.56-1.25-3.04-1-4.94-2.08-5.68-3.25-.13-.21-.19-.56-.19-1.06,0-1.5.37-3.46,1.12-5.88.75-2.46,1.44-3.69,2.07-3.69s2.43.79,5.43,2.38c3.21,1.75,4.81,3,4.81,3.75ZM1098.06,152.88c0,4-.96,7.33-2.87,10-1,1.38-3.09,3.08-6.25,5.12-2.42,1.54-4.82,3.08-7.19,4.62-7.46,5.46-12.37,8.94-14.75,10.44-5.33,3.29-9.65,4.94-12.94,4.94-2.46,0-4.41-1.29-5.87-3.88-1.38-2.42-2.07-5.46-2.07-9.12,0-1.71.44-4.54,1.32-8.5,1.08-5.04,2.39-8.71,3.94-11,.24-.04.37.17.37.62,0,.33-.46,2.42-1.37,6.25-.92,3.83-1.38,7.02-1.38,9.56,0,2.04.52,3.81,1.56,5.31,1.04,1.46,2.34,2.19,3.88,2.19,3.91,0,10.91-3.36,21-10.06,2.33-1.46,7.44-4.85,15.31-10.19,3.29-2.29,4.77-3.83,4.44-4.63-.92-2.29-2.57-4.1-4.94-5.44-4.29-2.29-8.6-4.58-12.94-6.88-3.08-1.75-6.43-4.65-10.06-8.69-3-3.33-4.85-5-5.56-5-.29,0-.54.11-.75.31,0-.04.12-.83.37-2.38.25-1.54.34-3.31.25-5.31-.04-1.71.04-2.56.25-2.56.13,0,.81.58,2.07,1.75.7.67,2.77,1.77,6.18,3.31,3.04,1.33,4.56,2.21,4.56,2.62,0,.25-.43.42-1.31.5-.87.08-2.25.27-4.12.56,2.91,2.83,7.33,5.69,13.25,8.56,6.33,3.08,9.87,4.92,10.62,5.5,3.34,2.62,5,6.44,5,11.44ZM1086.19,93.94c1.12,0,2.33,1.15,3.62,3.44.13.21.19.52.19.94v.38c-.46,2.29-.96,3.44-1.5,3.44-.17,0-1-.77-2.5-2.31l-.94-.38c-1.66,0-3.31,4.9-4.94,14.69-1.08,3.04-1.91,4.56-2.5,4.56-.37,0-.74-1.46-1.12-4.38-1.71-5.08-3.23-8.37-4.56-9.87h-.63l-.93.75h-.57c-1.25,0-2.64-1.21-4.19-3.63v-.37c1.3-2.67,2.32-4.25,3.07-4.75h.37c4.17,0,7.27,4.75,9.32,14.25v.19h.18c1.79-11.29,4.34-16.94,7.63-16.94ZM1048.75,107.81c-1.63,5.17-2.44,8.46-2.44,9.88,0,2.17.54,3.25,1.63,3.25.79,0,1.64-.96,2.56-2.88h.12l.19.25c-.75,4.04-1.83,6.06-3.25,6.06h-.5c-1.04,0-1.77-.69-2.18-2.06-.09-.58-.13-1.04-.13-1.37v-1.69c0-3.33,1.25-7.15,3.75-11.44h.25ZM1069.06,146.81c-1.62,5.17-2.44,8.46-2.44,9.88,0,2.17.55,3.25,1.63,3.25.79,0,1.65-.96,2.56-2.88h.13l.18.25c-.74,4.04-1.83,6.06-3.24,6.06h-.5c-1.05,0-1.78-.69-2.19-2.06-.09-.58-.13-1.04-.13-1.37v-1.69c0-3.33,1.25-7.15,3.75-11.44h.25ZM1087.81,175.25c-1.62,5.17-2.43,8.46-2.43,9.88,0,2.17.54,3.25,1.62,3.25.79,0,1.65-.96,2.56-2.88h.13l.19.25c-.76,4.04-1.84,6.06-3.26,6.06h-.5c-1.04,0-1.77-.69-2.18-2.06-.09-.58-.13-1.04-.13-1.38v-1.69c0-3.33,1.25-7.15,3.75-11.44h.25Z"/>
</svg>